PathFileType	4	(X/Y/Z)	C:\Users\Basilio\Documents\Thesis Gigler\squatting_fais\c3dfiles\039\SJ_pre3\markers_experimental.trc
DataRate	CameraRate	NumFrames	NumMarkers	Units	OrigDataRate	OrigDataStartFrame	OrigNumFrames
200.000000	200.000000	4	63	mm	200.000000	1100	1760
Frame#	Time	FHD			LBHD			RBHD			C7			T10			CLAV			LSHO			LUUPA			LMUPA			LDUPA			LLEP			LMEP			LRAD			LUL			LRFIN			RSHO			RUPA1			RMUPA			RDUPA			RLEP			RMEP			RRAD			RUL			RUFIN			LASI			RASI			USACR			LSACR			RSACR			LTHI1			LTHI2			LTHI3			LTHI4			LLFC			LMFC			LTIB1			LTIB2			LTIB3			LTIB4			LLMAL			LMMAL			LHEE			LMT1			LMT2			LMT5			RTHI			RTHI2			RTHI3			RTHI4			RLFC			RMFC			RTIB1			RTIB2			RTIB3			RTIB4			RLMAL			RMMAL			RHEE			RMT1			RMT2			RMT5			*61			*62			
		X1	Y1	Z1	X2	Y2	Z2	X3	Y3	Z3	X4	Y4	Z4	X5	Y5	Z5	X6	Y6	Z6	X7	Y7	Z7	X8	Y8	Z8	X9	Y9	Z9	X10	Y10	Z10	X11	Y11	Z11	X12	Y12	Z12	X13	Y13	Z13	X14	Y14	Z14	X15	Y15	Z15	X16	Y16	Z16	X17	Y17	Z17	X18	Y18	Z18	X19	Y19	Z19	X20	Y20	Z20	X21	Y21	Z21	X22	Y22	Z22	X23	Y23	Z23	X24	Y24	Z24	X25	Y25	Z25	X26	Y26	Z26	X27	Y27	Z27	X28	Y28	Z28	X29	Y29	Z29	X30	Y30	Z30	X31	Y31	Z31	X32	Y32	Z32	X33	Y33	Z33	X34	Y34	Z34	X35	Y35	Z35	X36	Y36	Z36	X37	Y37	Z37	X38	Y38	Z38	X39	Y39	Z39	X40	Y40	Z40	X41	Y41	Z41	X42	Y42	Z42	X43	Y43	Z43	X44	Y44	Z44	X45	Y45	Z45	X46	Y46	Z46	X47	Y47	Z47	X48	Y48	Z48	X49	Y49	Z49	X50	Y50	Z50	X51	Y51	Z51	X52	Y52	Z52	X53	Y53	Z53	X54	Y54	Z54	X55	Y55	Z55	X56	Y56	Z56	X57	Y57	Z57	X58	Y58	Z58	X59	Y59	Z59	X60	Y60	Z60	X61	Y61	Z61	X62	Y62	Z62	X63	Y63	Z63	

1101	5.5	130.5647888183594	1110.5166015625	-807.0681762695315	-20.12543487548828	1098.602783203125	-937.8643188476565	-1.803070545196534	1097.42529296875	-796.836364746094	-77.18698120117189	1034.8525390625	-875.7982177734377	-354.5900268554688	919.9329223632815	-890.1983032226565	-46.75251007080079	872.5820922851565	-881.111755371094	-8.077169418334963	939.5422973632815	-1059.437377929688	-135.536361694336	934.8082275390627	-1247.34228515625	-150.0093383789063	887.4930419921877	-1248.614624023438	-180.2967376708985	907.9262695312502	-1295.09130859375	-238.8778839111329	876.1445922851565	-1326.6220703125	-285.2825927734376	950.0216064453127	-1305.024047851563	-475.6217651367189	818.8372192382815	-1158.27685546875	-460.406219482422	752.8782958984376	-1193.03564453125	-446.7751770019532	802.3460083007815	-1098.4892578125	-22.95639038085938	915.0205688476565	-694.3035278320314	-163.5889587402344	961.9798583984377	-537.9750366210939	-183.7803649902344	917.757019042969	-525.0412597656251	-214.8322143554688	955.0720214843752	-489.6635742187501	-273.8878784179688	925.3143310546877	-458.5945434570314	-315.0343933105469	997.9600830078127	-495.374725341797	-459.9554748535157	848.8333740234377	-686.2745971679689	-476.7371215820314	795.842468261719	-634.3223266601564	-423.2895812988282	803.402770996094	-731.7002563476564	-418.2827148437501	735.1307373046876	-1029.083740234375	-434.7000122070314	702.5847167968751	-811.2080688476565	-506.6436157226564	882.6469726562502	-891.772399902344	-536.3437500000001	873.1687011718752	-921.602478027344	-541.4109497070314	865.1121826171877	-864.8692626953127	-371.3225097656251	607.6389160156251	-1111.907470703125	-287.0113220214844	589.1223754882814	-1117.537719726563	-256.0983886718751	623.5374145507814	-1106.624877929688	-261.0006103515626	533.8673095703126	-1106.513427734375	-175.7274627685547	476.1199340820314	-1093.28662109375	-142.9342193603516	457.1225585937501	-988.0167236328127	-140.5792999267578	335.9430541992188	-1078.783935546875	-217.9088592529297	321.1666564941407	-1120.525756835938	-183.2266693115235	305.0953674316407	-1101.105712890625	-210.6560211181641	229.2634735107422	-1063.24658203125	-334.4037780761719	98.08860778808597	-1096.589111328125	-312.0521850585938	87.8903274536133	-1011.211730957031	-409.1274719238282	42.2390251159668	-1057.717407226563	-174.1871032714844	52.87874984741212	-1069.176025390625	-185.0370635986328	54.84062576293947	-1110.612182617188	-234.8751373291016	33.23340225219727	-1158.392944335938	-379.4201049804688	622.8482055664064	-697.5230712890626	-312.9529724121094	626.2194824218751	-688.2597656250001	-295.0715026855469	652.7351074218751	-699.2753906250001	-263.2771911621094	560.2754516601564	-673.2628784179689	-189.2904815673828	466.3504333496095	-683.6908569335939	-150.0993347167969	463.5948486328126	-788.1401367187502	-194.914779663086	272.7582702636719	-694.9859619140626	-294.1221618652344	232.3103179931641	-688.0125732421876	-251.4296417236329	212.2367858886719	-688.7582397460939	-246.5433654785157	159.5157775878907	-715.7509155273439	-336.4853515625001	90.89183807373048	-695.9389038085939	-300.1926879882813	94.08504486083986	-779.7720947265627	-405.0365600585939	40.50460433959962	-746.7357788085939	-171.7956848144532	49.35607528686525	-716.1273193359376	-183.4959869384766	58.37668991088869	-672.6234741210939	-242.440902709961	33.35475158691407	-626.7277832031251	nan	nan	nan	nan	nan	nan	
1102	5.505	130.2926177978516	1111.690185546875	-807.3214111328127	-20.78655815124512	1099.806030273438	-937.9251708984377	-2.352357864379883	1098.703002929688	-796.798767089844	-77.34178161621095	1035.979736328125	-875.9318847656252	-354.8372497558594	920.8640136718752	-890.138122558594	-46.93900299072266	873.7310791015627	-881.1478271484377	-7.859415531158449	940.4296875000002	-1059.27880859375	-136.1212615966797	934.9600830078127	-1247.344360351563	-150.5817565917969	888.2160644531252	-1247.853637695313	-180.251693725586	908.819274902344	-1294.882202148438	-238.9859771728516	877.0325317382815	-1326.21923828125	-285.3324890136719	950.9046630859377	-1304.764526367188	-475.2035522460939	819.0352172851565	-1158.24951171875	-460.5407104492189	753.6542968750001	-1192.869018554688	-446.7424316406251	803.1867675781252	-1098.38037109375	-22.95487213134766	915.9997558593752	-694.1864013671876	-163.2804412841797	962.696228027344	-537.9705810546876	-183.5297393798828	918.2622680664065	-524.9577636718751	-214.6653137207032	955.532653808594	-489.587371826172	-273.7687377929688	925.7319946289065	-458.4779052734376	-314.8368835449219	998.4332275390627	-495.0920410156251	-460.0086364746095	849.5338134765627	-685.9988403320314	-476.8350830078126	796.4641723632815	-634.0930786132814	-423.5261535644532	804.2353515625002	-731.7604980468751	-417.5506896972657	737.0549316406251	-1029.134643554688	-432.797576904297	704.5749511718751	-811.161560058594	-506.7160034179689	883.8830566406252	-891.6087036132815	-536.5261840820314	874.0626220703127	-921.4410400390627	-541.3476562500001	865.944030761719	-864.3397216796877	-371.9147949218751	607.6253051757814	-1111.78466796875	-287.3212585449219	589.5245971679689	-1117.14990234375	-256.3608398437501	624.0573120117189	-1106.239624023438	-261.3553466796876	534.2985839843751	-1106.090454101563	-176.0878295898438	476.3175354003907	-1092.846435546875	-143.4559020996094	457.233123779297	-987.430358886719	-140.8269348144532	336.0939331054688	-1078.444091796875	-218.1368560791016	321.3580017089844	-1120.251586914063	-183.4092102050782	305.4176635742188	-1100.944091796875	-210.8843536376954	229.3319396972657	-1063.098754882813	-334.4755554199219	98.092887878418	-1096.5400390625	-312.1617126464844	87.88440704345705	-1011.253295898438	-408.9998474121095	42.40604782104493	-1057.773803710938	-174.1939239501953	52.86022186279298	-1069.169921875	-185.0308990478516	54.92282104492189	-1110.612915039063	-234.8978881835938	33.24528121948243	-1158.396850585938	-379.4333190917969	623.2485961914064	-697.6881103515626	-312.9938049316407	626.6232299804689	-688.4653320312501	-295.1714172363282	653.1607666015626	-699.3265991210939	-263.3082275390626	560.6283569335939	-673.6994628906251	-189.752685546875	466.5503540039064	-684.1596679687501	-150.7767181396485	463.588104248047	-788.520446777344	-195.0968475341797	272.8488769531251	-695.2238159179689	-294.2911376953126	232.4048767089844	-688.2077026367189	-251.5619506835938	212.3356628417969	-688.8969726562501	-246.5686950683594	159.5702209472657	-715.8567504882814	-336.5084533691407	90.8875198364258	-695.9528198242189	-300.2365417480469	94.0836639404297	-779.8130493164065	-405.1107788085939	40.49425125122071	-746.7268066406251	-171.843002319336	49.44783782958986	-716.1433105468751	-183.5250091552735	58.42122268676759	-672.6063842773439	-242.4695587158204	33.3425521850586	-626.7665405273439	nan	nan	nan	nan	nan	nan	
1103	5.51	129.9485626220703	1113.18115234375	-807.431823730469	-20.85379791259766	1100.859008789063	-938.111511230469	-2.577960014343262	1100.028686523438	-797.2089843750002	-77.45069122314455	1037.247802734375	-876.020690917969	-354.9365539550782	921.9274902343752	-890.0426025390627	-47.07420730590821	874.777526855469	-881.1895141601565	-7.544616222381594	941.827087402344	-1059.243896484375	-135.2940826416016	936.8441162109377	-1247.43017578125	-150.5697174072266	889.1981201171877	-1247.708374023438	-180.6050872802735	910.2800903320315	-1294.837768554688	-239.1871185302735	877.7761230468752	-1325.916137695313	-285.3352661132813	951.7464599609377	-1304.45703125	-475.2431030273439	819.9409790039065	-1157.952026367188	-460.6440429687501	754.4342651367189	-1192.636596679688	-446.8338928222657	803.883972167969	-1098.285888671875	-22.81758308410645	917.2886352539065	-694.6122436523439	-163.1722412109375	963.6083984375002	-537.8259277343751	-183.386703491211	918.9703369140627	-524.8995971679689	-214.4994659423829	956.0728759765627	-489.3568725585939	-273.6060791015626	926.2447509765627	-458.473602294922	-314.8218994140626	999.1196289062502	-494.8393859863282	-460.056610107422	850.177429199219	-685.6846313476564	-476.9048156738282	797.1028442382815	-633.8854370117189	-423.292938232422	804.8038330078127	-731.4089355468751	-417.1616516113282	738.0429077148439	-1028.75048828125	-432.9561157226564	705.6658935546876	-810.798278808594	-506.7541809082032	884.8890380859377	-891.5074462890627	-536.6071166992189	874.9583129882815	-921.369567871094	-541.5701293945314	866.862487792969	-864.347106933594	-372.1085510253907	608.2950439453126	-1111.423706054688	-287.4662170410157	590.0304565429689	-1116.755981445313	-257.1200866699219	625.1055908203126	-1105.918090820313	-261.6863098144532	535.0039062500001	-1106.146240234375	-176.352035522461	476.5739746093751	-1092.461547851563	-143.8471832275391	457.4731445312501	-986.8480224609377	-141.1849517822266	336.2727661132813	-1077.978515625	-218.4595489501954	321.4632873535157	-1119.915893554688	-183.4494323730469	305.7145690917969	-1100.732666015625	-211.1467285156251	229.3360748291016	-1062.808349609375	-334.5249023437501	98.10667419433597	-1096.540283203125	-312.2803344726563	87.84407043457033	-1011.294250488281	-409.0407104492189	42.40856933593751	-1057.80859375	-174.2279968261719	52.86593246459962	-1069.167236328125	-185.1279602050782	54.85241699218751	-1110.641723632813	-234.861801147461	33.23704147338868	-1158.377197265625	-379.5334167480469	623.8107910156251	-697.8408203125001	-312.9168701171876	627.0958251953126	-688.7146606445314	-295.2885131835938	653.7435913085939	-699.5987548828126	-263.5075073242188	561.0669555664064	-674.0920410156251	-190.1344451904297	466.8609313964845	-684.5330200195314	-151.2929382324219	463.8078002929689	-789.039733886719	-195.3175048828126	272.9647827148438	-695.4743041992189	-294.4588623046876	232.4502716064454	-688.3358764648439	-251.6497192382813	212.4725494384766	-689.0669555664064	-246.6903076171876	159.6055450439453	-716.0316162109376	-336.5629882812501	90.9195022583008	-695.9724121093751	-300.3281860351563	94.01292419433595	-779.8255615234377	-405.1562805175782	40.45545959472657	-746.6772460937501	-171.805648803711	49.41529464721681	-716.1766357421876	-183.5561828613282	58.50970458984376	-672.6682739257814	-242.4209747314454	33.39452362060548	-626.7976684570314	nan	nan	nan	nan	nan	nan	
1104	5.515	129.6679077148438	1114.743896484375	-807.7676391601565	-21.48788833618164	1102.32470703125	-938.296081542969	-2.922898769378663	1101.220703125	-796.9173583984377	-77.57108306884767	1038.608520507813	-875.9669189453127	-355.1052551269532	923.085632324219	-889.9400024414065	-46.87504196166993	876.0043945312502	-881.1217041015627	-7.200488567352297	942.9820556640627	-1059.019409179688	-135.4359893798828	937.6566162109377	-1247.289794921875	-149.6888122558594	890.2219238281252	-1248.113159179688	-180.632797241211	911.0325927734377	-1294.782958984375	-239.1139221191407	878.682556152344	-1325.742797851563	-285.3058166503907	952.7922973632815	-1304.030639648438	-475.2669982910157	820.8796386718752	-1157.721923828125	-460.7442932128907	755.3992309570314	-1192.467651367188	-446.839569091797	804.8785400390627	-1097.915405273438	-22.79210472106934	918.4802856445315	-694.5229492187501	-163.0920867919922	964.310729980469	-537.6643676757814	-183.3147888183594	919.6491699218752	-524.9876708984376	-214.3364257812501	956.4064941406252	-489.3193359375001	-273.3229370117188	926.890563964844	-458.4444274902345	-314.7975463867188	999.815368652344	-494.5181884765626	-460.0823974609376	850.8623657226565	-685.2855834960939	-477.0061340332032	797.620788574219	-633.6367797851564	-423.635223388672	806.0872192382815	-731.2550659179689	-418.2399291992189	737.6453247070314	-1027.876831054688	-434.5710754394532	706.2377929687501	-809.8197021484377	-506.9424743652345	885.684020996094	-891.317077636719	-536.6297607421876	875.9661254882815	-921.1834106445315	-541.7742919921876	868.0866699218752	-864.002868652344	-372.2142639160157	608.9166870117189	-1111.123779296875	-287.5054016113282	590.7734985351564	-1116.319458007813	-257.2325134277344	625.6143188476564	-1105.420166015625	-261.9327087402344	535.5415039062501	-1105.550903320313	-176.755615234375	476.8924560546876	-1091.97265625	-144.258056640625	457.5187988281251	-986.4692993164065	-142.0299377441407	336.8849182128907	-1077.783813476563	-218.8120880126954	321.1115417480469	-1119.554565429688	-183.5853424072266	306.0045776367188	-1100.415893554688	-211.3512573242188	229.4227752685547	-1062.5703125	-334.6120605468751	98.07104492187503	-1096.531860351563	-312.3525695800782	87.79266357421876	-1011.242126464844	-409.092254638672	42.33066177368165	-1057.848388671875	-174.2826080322266	52.87940597534181	-1069.109497070313	-185.2048492431641	54.91987228393556	-1110.589233398438	-234.8854675292969	33.25500488281251	-1158.370849609375	-379.5863952636719	624.6892089843751	-697.9193725585939	-313.3365783691407	627.0152587890626	-689.2225341796876	-295.2167663574219	654.3417358398439	-699.7406005859376	-263.6610107421876	561.6423950195314	-674.4312744140626	-190.192611694336	467.349334716797	-684.6796264648439	-151.4385833740235	464.0027465820314	-789.6682739257815	-195.4726104736329	273.1343383789063	-695.6765136718751	-294.5408630371094	232.4508514404297	-688.5397949218751	-251.7920684814454	212.6236419677735	-689.3199462890626	-246.7630310058594	159.7073669433594	-716.1964111328126	-336.6022338867188	90.91722869873048	-695.9827270507814	-300.3104858398438	93.99346923828126	-779.8499755859377	-405.1746520996095	40.43937301635743	-746.6903076171876	-171.8670654296875	49.4114456176758	-716.2829589843751	-183.5668182373047	58.53589248657228	-672.7223510742189	-242.4107513427735	33.41539001464844	-626.8336791992189	nan	nan	nan	nan	nan	nan	
